<?xml version="1.0" encoding="utf-8"?>
<svg version="1.1" xmlns="http://www.w3.org/2000/svg" xmlns:xlink="http://www.w3.org/1999/xlink" x="0px" y="0px"
	 viewBox="0 0 24 24" style="enable-background:new 0 0 24 24;" xml:space="preserve">
<style type="text/css">
	.st0{fill:#AAAAAA;}
</style>
<path class="st0" d="M11.2,14.7v5.5c0,0.5-0.2,0.9-0.5,1.3c-0.3,0.4-0.7,0.5-1.1,0.5H3.5c-0.4,0-0.8-0.2-1.1-0.5
	C2.2,21.1,2,20.7,2,20.2v-5.5c0-0.5,0.2-0.9,0.5-1.3c0.3-0.4,0.7-0.5,1.1-0.5h6.2c0.4,0,0.8,0.2,1.1,0.5
	C11.1,13.8,11.2,14.2,11.2,14.7z M11.2,3.8v5.5c0,0.5-0.2,0.9-0.5,1.3c-0.3,0.4-0.7,0.5-1.1,0.5H3.5c-0.4,0-0.8-0.2-1.1-0.5
	C2.2,10.2,2,9.8,2,9.3V3.8c0-0.5,0.2-0.9,0.5-1.3S3.1,2,3.5,2h6.2c0.4,0,0.8,0.2,1.1,0.5S11.2,3.3,11.2,3.8z M22,14.7v5.5
	c0,0.5-0.2,0.9-0.5,1.3c-0.3,0.4-0.7,0.5-1.1,0.5h-6.2c-0.4,0-0.8-0.2-1.1-0.5c-0.3-0.4-0.5-0.8-0.5-1.3v-5.5c0-0.5,0.2-0.9,0.5-1.3
	c0.3-0.4,0.7-0.5,1.1-0.5h6.2c0.4,0,0.8,0.2,1.1,0.5C21.8,13.8,22,14.2,22,14.7z M22,3.8v5.5c0,0.5-0.2,0.9-0.5,1.3
	c-0.3,0.4-0.7,0.5-1.1,0.5h-6.2c-0.4,0-0.8-0.2-1.1-0.5c-0.3-0.4-0.5-0.8-0.5-1.3V3.8c0-0.5,0.2-0.9,0.5-1.3S13.9,2,14.3,2h6.2
	c0.4,0,0.8,0.2,1.1,0.5C21.8,2.9,22,3.3,22,3.8z"/>
</svg>
