<?xml version="1.0" encoding="utf-8"?>
<svg version="1.1" xmlns="http://www.w3.org/2000/svg" xmlns:xlink="http://www.w3.org/1999/xlink" x="0px" y="0px"
	 viewBox="0 0 24 24" style="enable-background:new 0 0 24 24;" xml:space="preserve">
<style type="text/css">
	.st0{fill:#AAAAAA;}
</style>
<path class="st0" d="M12,5c-4.1,0-7.7,3.1-9.9,6.5C2,11.6,2,11.8,2,12s0,0.4,0.1,0.5C4.3,15.9,7.9,19,12,19c4.1,0,7.8-3.1,9.9-6.5
	C22,12.4,22,12.2,22,12s0-0.4-0.1-0.5C19.8,8.1,16.1,5,12,5z M12,8c2.2,0,4,1.8,4,4s-1.8,4-4,4s-4-1.8-4-4S9.8,8,12,8z M12,9.5
	c1.4,0,2.5,1.1,2.5,2.5s-1.1,2.5-2.5,2.5S9.5,13.4,9.5,12S10.6,9.5,12,9.5z"/>
</svg>
