<?xml version="1.0" encoding="utf-8"?>
<svg version="1.1" xmlns="http://www.w3.org/2000/svg" xmlns:xlink="http://www.w3.org/1999/xlink" x="0px" y="0px"
	 viewBox="0 0 24 24" style="enable-background:new 0 0 24 24;" xml:space="preserve">
<style type="text/css">
	.st0{fill:#AAAAAA;}
</style>
<path class="st0" d="M11,5.2C11,3.5,9.6,2,7.9,2H5.1C3.4,2,2,3.5,2,5.2v13.5c0,1.7,1.4,3.1,3.1,3.1H8c1.7,0,3.1-1.5,3.1-3.2L11,5.2
	L11,5.2z M5.2,4.1h2.7C8.4,4.1,9,4.9,9,5.5v6H4v-6C4,4.9,4.6,4.1,5.2,4.1z M21.9,5.2c0-1.8-1.4-3.2-3.1-3.2h-2.9c-1.6,0-3,1.5-3,3.2
	v13.5c0,1.8,1.4,3.2,3.1,3.2h2.9c1.7,0,3.1-1.5,3.1-3.2L21.9,5.2L21.9,5.2z M15.9,4.1h2.8c0.6,0,1.2,0.8,1.2,1.4v2.8h-5V5.5
	C14.9,4.9,15.4,4.1,15.9,4.1z"/>
</svg>
