<?xml version="1.0" encoding="utf-8"?>
<svg version="1.1" xmlns="http://www.w3.org/2000/svg" xmlns:xlink="http://www.w3.org/1999/xlink" x="0px" y="0px"
	 viewBox="0 0 24 24" style="enable-background:new 0 0 24 24;" xml:space="preserve">
<style type="text/css">
	.st0{fill:#AAAAAA;}
</style>
<path class="st0" d="M6.4,6.8L6.4,6.8l0,0.8c0,1.3,3.7,1.3,3.6,0V6.8C9.9,5.5,6.5,5.5,6.4,6.8z M9.3,6.9c0,0.3-0.5,0.5-1.1,0.5
	c-0.6,0-1.1-0.2-1.1-0.5c0-0.3,0.5-0.5,1.1-0.5C8.8,6.4,9.3,6.7,9.3,6.9z M2.4,7.1L2.4,7.1L2.4,7.1L12,2l9.6,5.1v4.4l-9.2,4.8v-4.4
	l8.2-4.3L12,3L3.4,7.5l8.2,4.4v4.4l-9.2-4.9C2.4,11.4,2.4,7.1,2.4,7.1z M21.6,12.4v4.8L12.4,22v-4.7C12.4,17.3,21.6,12.4,21.6,12.4z
	 M10.2,9.6c0,1.3,3.7,1.3,3.6,0V8.8c-0.1-1.3-3.5-1.3-3.6,0h0V9.6z M12,8.5c0.6,0,1.1,0.2,1.1,0.5c0,0.3-0.5,0.5-1.1,0.5
	s-1.1-0.2-1.1-0.5S11.4,8.5,12,8.5z M13.8,5.7V4.9c-0.1-1.3-3.5-1.3-3.6,0h0v0.8C10.1,7,13.8,7,13.8,5.7z M12,4.5
	c0.6,0,1.1,0.2,1.1,0.5c0,0.3-0.5,0.5-1.1,0.5c-0.6,0-1.1-0.2-1.1-0.5S11.4,4.5,12,4.5z M17.6,7.6V6.8c-0.1-1.3-3.5-1.3-3.6,0h0v0.8
	C13.9,8.9,17.6,8.9,17.6,7.6z M14.6,6.9c0-0.3,0.5-0.5,1.1-0.5c0.6,0,1.1,0.2,1.1,0.5s-0.5,0.5-1.1,0.5C15.2,7.4,14.6,7.2,14.6,6.9z
	 M11.6,17.3V22l-9.2-4.7v-4.9L11.6,17.3z"/>
</svg>
